<?xml version="1.0" encoding="iso-8859-1"?>
<!-- Generator: Adobe Illustrator 19.0.0, SVG Export Plug-In . SVG Version: 6.00 Build 0)  -->
<svg version="1.1" id="Layer_1" xmlns="http://www.w3.org/2000/svg" xmlns:xlink="http://www.w3.org/1999/xlink" x="0px" y="0px"
	 viewBox="0 0 511.999 511.999" style="enable-background:new 0 0 511.999 511.999;" xml:space="preserve">
<g>
	<g>
		<path d="M376.812,50.496C345.273,18.551,303.2,0.622,258.347,0.014c-45.531-0.582-88.397,16.381-120.804,47.863
			c-32.415,31.489-50.632,73.88-51.293,119.364c-0.55,37.707,11.013,73.576,33.439,103.729
			c27.472,36.94,41.995,80.028,41.995,124.61v0.544c0,4.465,3.618,8.084,8.084,8.084h13.474v67.239
			c0,22.36,18.191,40.55,40.55,40.55h64.415c22.36,0,40.55-18.191,40.55-40.55V404.21h13.474c4.466,0,8.084-3.62,8.084-8.084v-0.549
			c0-44.784,14.428-87.745,41.721-124.238c22.068-29.505,33.732-64.628,33.732-101.571
			C425.768,124.829,408.382,82.47,376.812,50.496z M312.589,471.449c0,13.445-10.937,24.382-24.382,24.382h-64.415
			c-2.228,0-4.386-0.306-6.438-0.869l95.235-23.809V471.449z M312.589,454.487l-110.694,27.674
			c-1.589-3.236-2.486-6.87-2.486-10.712v-4.337l113.179-28.295V454.487z M312.589,422.15L199.41,450.445v-15.672l113.179-28.295
			V422.15z M199.41,418.108V404.21h55.595L199.41,418.108z M379.09,261.654c-27.868,37.262-43.284,80.812-44.816,126.387h-37.853
			V210.187h23.574c21.988,0,40.466-17.285,41.084-39.265c0.651-23.201-18.361-42.213-41.562-41.562
			c-21.979,0.617-39.265,19.095-39.265,41.084v23.574h-37.726v-23.574c0-21.988-17.285-40.466-39.265-41.084
			c-23.201-0.651-42.213,18.361-41.562,41.562c0.617,21.979,19.095,39.265,41.084,39.265h23.574v62.382
			c0,4.465,3.62,8.084,8.084,8.084s8.084-3.62,8.084-8.084v-62.382h37.726V388.04h-37.726v-76.093c0-4.465-3.62-8.084-8.084-8.084
			s-8.084,3.62-8.084,8.084v76.093h-48.635c-1.547-45.388-17.046-89.052-45.062-126.72c-20.285-27.275-30.743-59.726-30.247-93.845
			c1.22-83.87,69.917-151.31,153.597-151.31c0.7,0,1.412,0.005,2.115,0.015c83.522,1.133,151.471,70.031,151.471,153.585
			C409.6,203.193,399.049,234.967,379.09,261.654z M296.421,194.02v-24.253c0-13.373,10.88-24.253,24.253-24.253
			c13.372,0,24.253,10.879,24.253,24.253s-10.88,24.253-24.253,24.253H296.421z M226.357,169.767v24.253h-24.253
			c-13.372,0-24.253-10.879-24.253-24.253s10.88-24.253,24.253-24.253S226.357,156.394,226.357,169.767z"/>
	</g>
</g>
<g>
</g>
<g>
</g>
<g>
</g>
<g>
</g>
<g>
</g>
<g>
</g>
<g>
</g>
<g>
</g>
<g>
</g>
<g>
</g>
<g>
</g>
<g>
</g>
<g>
</g>
<g>
</g>
<g>
</g>
</svg>
