<?xml version="1.0" encoding="iso-8859-1"?>
<!-- Generator: Adobe Illustrator 19.0.0, SVG Export Plug-In . SVG Version: 6.00 Build 0)  -->
<svg version="1.1" id="Layer_1" xmlns="http://www.w3.org/2000/svg" xmlns:xlink="http://www.w3.org/1999/xlink" x="0px" y="0px"
	 viewBox="0 0 512 512" style="enable-background:new 0 0 512 512;" xml:space="preserve">
<g>
	<g>
		<path d="M484.99,177.853h-48.38c-14.893,0-27.01,12.117-27.01,27.01v5.327h-8.192c-8.528,0-16.893-2.934-23.553-8.262
			l-28.811-23.049c-9.516-7.612-21.467-11.805-33.652-11.805h-23.981c-3.181,0-5.769-2.587-5.769-5.769V72.758
			c0-25.261-20.55-45.811-45.811-45.811c-25.26,0-45.811,20.55-45.811,45.811v86.786c0,4.153-3.378,7.53-7.53,7.53H56.589
			c-25.26,0-45.81,20.55-45.81,45.811c0,13.544,5.912,25.728,15.286,34.122C10.663,254.395,0,270.143,0,288.337
			c0,21.138,14.393,38.968,33.891,44.228c-7.642,8.189-12.333,19.166-12.333,31.224c0,21.137,14.393,38.968,33.891,44.228
			c-7.642,8.189-12.333,19.166-12.333,31.224c0,25.26,20.55,45.81,45.811,45.81h218.075c11.092,0,21.686-5.298,28.342-14.171
			l19.009-25.345c2.362-3.15,5.583-5.471,9.317-6.715l45.93-15.31v12.975c0,14.892,12.117,27.009,27.01,27.009h48.38
			c14.893,0,27.01-12.117,27.01-27.01V204.863C512,189.969,499.883,177.853,484.99,177.853z M495.832,436.485L495.832,436.485
			c0,5.988-4.854,10.841-10.841,10.841h-48.38c-5.988,0-10.841-4.854-10.841-10.841v-24.333c0-0.009,0-0.017,0-0.026V304.739
			c0-4.465-3.62-8.084-8.084-8.084c-4.465,0-8.084,3.62-8.084,8.084v101.729l-51.043,17.015
			c-6.836,2.279-12.814,6.587-17.137,12.352l-19.011,25.346c-3.638,4.849-9.346,7.704-15.409,7.704H89.557
			c-16.129,0-29.78-12.622-30.26-28.743c-0.498-16.752,12.985-30.54,29.629-30.54h15.83c4.427,0,8.287-3.411,8.419-7.836
			c0.137-4.578-3.533-8.332-8.081-8.332H67.999c-16.129,0-29.78-12.622-30.26-28.743c-0.498-16.753,12.985-30.541,29.629-30.541
			h26.609c4.427,0,8.287-3.411,8.419-7.836c0.137-4.578-3.533-8.332-8.081-8.332H46.441c-16.129,0-29.78-12.622-30.26-28.743
			c-0.498-16.753,12.985-30.541,29.629-30.541h37.388c4.427,0,8.287-3.412,8.419-7.836c0.137-4.578-3.533-8.332-8.081-8.332H57.22
			c-16.129,0-29.78-12.622-30.26-28.743c-0.498-16.753,12.985-30.541,29.629-30.541h129.901c13.088,0,23.699-10.61,23.699-23.699
			V73.388c0-16.13,12.622-29.781,28.745-30.26c16.753-0.497,30.539,12.987,30.539,29.629v88.547
			c0,12.116,9.822,21.937,21.937,21.937h23.981c8.528,0,16.893,2.934,23.553,8.262l28.811,23.049
			c9.552,7.642,21.422,11.805,33.655,11.805h8.189v40.319c0,4.465,3.62,8.084,8.084,8.084s8.084-3.62,8.084-8.084v-61.814
			c0-5.988,4.854-10.841,10.841-10.841h48.38c5.988,0,10.841,4.854,10.841,10.841V436.485z"/>
	</g>
</g>
<g>
</g>
<g>
</g>
<g>
</g>
<g>
</g>
<g>
</g>
<g>
</g>
<g>
</g>
<g>
</g>
<g>
</g>
<g>
</g>
<g>
</g>
<g>
</g>
<g>
</g>
<g>
</g>
<g>
</g>
</svg>
